<?xml version="1.0" encoding="UTF-8" standalone="no"?>
<!-- Created with Inkscape (http://www.inkscape.org/) -->

<svg
   width="512"
   height="512"
   viewBox="0 0 512 512"
   version="1.1"
   id="svg1"
   xmlns="http://www.w3.org/2000/svg"
   xmlns:svg="http://www.w3.org/2000/svg">
  <defs
     id="defs1" />
  <g
     id="layer1">
    <g
       id="text1"
       style="font-size:244.575px;line-height:1;font-family:'002 zou ver.2';-inkscape-font-specification:'002 zou ver.2';letter-spacing:0px;fill:#1a1a1a;stroke-width:1.27383"
       transform="matrix(0.97611607,0,0,1.0403749,-1.9842989,-0.376674)"
       aria-label="テク&#10;フラ">
      <path
         d="M 32.599503,83.413528 49.719753,19.579454 H 277.41908 L 260.29883,83.413528 Z M 238.77623,164.61243 H 169.56151 L 149.26179,240.1861 H 70.997778 l 20.299724,-75.57367 h -80.2206 L 28.197153,100.77835 H 255.89648 Z m 153.83768,75.08452 34.2405,-134.27167 h -72.14963 l -22.74547,85.35667 h -78.264 L 299.43083,19.579454 h 78.264 l -5.8698,22.01175 h 149.6799 L 470.87791,239.69695 Z"
         id="path4"
         style="fill:#1a1a1a" />
      <path
         d="M 167.93683,327.98853 H 18.256944 l 17.12025,-63.83408 H 263.0765 v 0.48915 l -58.45342,220.1175 h -78.264 z m 94.8951,0 17.12025,-63.83408 H 507.6515 l -17.12025,63.83408 z M 370.6895,484.7611 390.74465,409.18742 H 241.30933 l 17.12025,-63.83407 H 486.1289 L 448.9535,484.7611 Z"
         id="path5"
         style="fill:#1a1a1a" />
    </g>
    <path
       style="font-size:192px;line-height:1;font-family:kitchenkatakana;-inkscape-font-specification:kitchenkatakana;letter-spacing:0px;fill:#1a1a1a;stroke-width:0.814591"
       d="m 207.46748,467.21635 q -0.46685,-17.98916 13.2273,-28.63275 10.73746,-8.09511 25.67651,-8.24503 16.96207,-0.14991 28.16635,11.69294 9.80377,10.4937 9.80377,25.18484 0,17.53944 -12.60483,28.33294 -10.58184,8.99457 -25.36529,9.14448 -22.71982,0.1499 -32.8348,-15.89042 -5.60216,-8.99458 -6.06901,-21.587 z m 23.65352,0.59964 q 0,7.94523 7.15831,11.84286 3.57915,1.64902 7.62514,1.79892 9.33692,0.14991 13.07168,-7.49548 1.24492,-2.84829 1.55615,-6.1463 0.46684,-7.34557 -5.75776,-11.84286 -4.04601,-2.69838 -8.87007,-2.54845 -8.87007,0.2998 -12.76044,7.19564 -1.8674,3.29803 -2.02301,7.19567 z"
       id="path3" />
  </g>
</svg>
